<?xml version="1.0" standalone="no"?>
<!DOCTYPE svg PUBLIC "-//W3C//DTD SVG 20010904//EN"
 "http://www.w3.org/TR/2001/REC-SVG-20010904/DTD/svg10.dtd">
<svg version="1.0" xmlns="http://www.w3.org/2000/svg"
 width="160.000000pt" height="160.000000pt" viewBox="0 0 160.000000 160.000000"
 preserveAspectRatio="xMidYMid meet">
<metadata>
Created by potrace 1.11, written by Peter Selinger 2001-2013
</metadata>
<g transform="translate(0.000000,160.000000) scale(0.100000,-0.100000)"
fill="#000000" stroke="none">
<path d="M764 1552 c-53 -8 -62 -14 -85 -60 -22 -45 -31 -52 -109 -88 -100
-46 -162 -103 -197 -184 -14 -30 -39 -84 -57 -120 -19 -36 -48 -101 -65 -145
-33 -81 -33 -84 -17 -190 11 -71 87 -305 100 -305 19 0 166 110 174 130 2 4
-13 46 -33 93 -40 98 -42 116 -15 175 10 23 19 43 19 45 -2 7 25 57 31 57 4 0
5 -19 3 -42 -10 -103 -7 -163 9 -188 21 -33 17 -114 -12 -209 -20 -69 -56
-196 -64 -232 -3 -9 -10 -34 -16 -57 -16 -51 -9 -68 29 -77 24 -5 31 -12 31
-29 0 -19 9 -26 58 -39 116 -34 181 -44 278 -41 146 3 276 36 356 89 46 31 47
46 12 152 -14 43 -27 83 -28 88 -8 31 -29 102 -47 157 -30 90 -31 155 -4 193
30 41 33 55 23 90 -16 53 -21 145 -9 145 7 0 14 -8 17 -17 4 -10 15 -37 25
-61 35 -78 34 -94 -7 -198 l-38 -97 25 -19 c13 -10 44 -35 68 -56 55 -47 69
-55 86 -48 11 4 52 112 70 186 2 8 11 40 20 70 18 62 27 170 16 185 -4 5 -23
48 -41 95 -18 47 -43 99 -56 116 -13 17 -35 61 -49 97 -36 88 -76 126 -192
182 -92 45 -99 50 -121 96 -15 31 -32 51 -45 54 -27 7 -116 11 -143 7z"/>
</g>
</svg>
